<?xml version="1.0" encoding="UTF-8" standalone="no"?>
<!DOCTYPE svg PUBLIC "-//W3C//DTD SVG 1.1//EN" "http://www.w3.org/Graphics/SVG/1.1/DTD/svg11.dtd">
<svg width="100%" height="100%" viewBox="0 0 24 24" version="1.1" xmlns="http://www.w3.org/2000/svg" xmlns:xlink="http://www.w3.org/1999/xlink" xml:space="preserve" xmlns:serif="http://www.serif.com/" style="fill-rule:evenodd;clip-rule:evenodd;stroke-linejoin:round;stroke-miterlimit:2;">
    <g transform="matrix(0.95833,0,0,0.95833,0.500029,0.500014)">
        <path d="M23.499,6.203C23.216,5.19 22.423,4.397 21.41,4.114C19.54,3.613 12.01,3.613 12.01,3.613C12.01,3.613 4.501,3.603 2.611,4.114C1.598,4.397 0.805,5.191 0.523,6.204C0.168,8.119 -0.007,10.063 0,12.01C-0.006,13.95 0.17,15.887 0.523,17.795C0.805,18.807 1.599,19.601 2.611,19.884C4.48,20.386 12.011,20.386 12.011,20.386C12.011,20.386 19.519,20.386 21.41,19.884C22.423,19.601 23.217,18.807 23.499,17.794C23.845,15.886 24.012,13.949 23.999,12.01C24.014,10.063 23.846,8.118 23.499,6.202L23.499,6.203ZM9.608,15.603L9.608,8.407L15.874,12.011L9.608,15.603Z" style="fill:rgb(255,0,0);fill-rule:nonzero;stroke:white;stroke-width:0.47px;"/>
    </g>
</svg>
